<svg width="7" height="8" viewBox="0 0 7 8" fill="none" xmlns="http://www.w3.org/2000/svg">
<g clip-path="url(#clip0_139_6803)">
<path d="M3.36 7.36372C5.21568 7.36372 6.72 5.8594 6.72 4.00372C6.72 2.14804 5.21568 0.643738 3.36 0.643738C1.50432 0.643738 0 2.14804 0 4.00372C0 5.8594 1.50432 7.36372 3.36 7.36372Z" fill="#333333"/>
<path d="M0.000136852 10.72C1.85581 10.72 3.36014 9.21568 3.36014 7.36C3.36014 5.50432 1.85581 4 0.000136852 4C-1.85554 4 -3.35986 5.50432 -3.35986 7.36C-3.35986 9.21568 -1.85554 10.72 0.000136852 10.72Z" fill="#141414"/>
<path d="M6.72035 10.72C8.57603 10.72 10.0804 9.21568 10.0804 7.36C10.0804 5.50432 8.57603 4 6.72035 4C4.86467 4 3.36035 5.50432 3.36035 7.36C3.36035 9.21568 4.86467 10.72 6.72035 10.72Z" fill="#141414"/>
<path d="M0.000136852 4.00003C1.85581 4.00003 3.36014 2.49571 3.36014 0.640029C3.36014 -1.21565 1.85581 -2.71997 0.000136852 -2.71997C-1.85554 -2.71997 -3.35986 -1.21565 -3.35986 0.640029C-3.35986 2.49571 -1.85554 4.00003 0.000136852 4.00003Z" fill="#141414"/>
<path d="M6.72035 4.00003C8.57603 4.00003 10.0804 2.49571 10.0804 0.640029C10.0804 -1.21565 8.57603 -2.71997 6.72035 -2.71997C4.86467 -2.71997 3.36035 -1.21565 3.36035 0.640029C3.36035 2.49571 4.86467 4.00003 6.72035 4.00003Z" fill="#141414"/>
</g>
<defs>
<clipPath id="clip0_139_6803">
<rect width="6.72" height="6.72" fill="white" transform="translate(0 0.640015)"/>
</clipPath>
</defs>
</svg>
