<svg width="16" height="16" viewBox="0 0 16 16" fill="none" xmlns="http://www.w3.org/2000/svg">
<g clip-path="url(#clip0_139_6796)">
<path d="M7.9998 15.2079C11.9763 15.2079 15.1998 11.9844 15.1998 8.00794C15.1998 4.03149 11.9763 0.807983 7.9998 0.807983C4.02335 0.807983 0.799805 4.03149 0.799805 8.00794C0.799805 11.9844 4.02335 15.2079 7.9998 15.2079Z" fill="#333333"/>
<path d="M0.799609 22.4C4.77606 22.4 7.99961 19.1764 7.99961 15.2C7.99961 11.2235 4.77606 8 0.799609 8C-3.17684 8 -6.40039 11.2235 -6.40039 15.2C-6.40039 19.1764 -3.17684 22.4 0.799609 22.4Z" fill="#141414"/>
<path d="M15.1995 22.4C19.176 22.4 22.3995 19.1764 22.3995 15.2C22.3995 11.2235 19.176 8 15.1995 8C11.2231 8 7.99951 11.2235 7.99951 15.2C7.99951 19.1764 11.2231 22.4 15.1995 22.4Z" fill="#141414"/>
<path d="M0.799609 7.99998C4.77606 7.99998 7.99961 4.77643 7.99961 0.799975C7.99961 -3.17647 4.77606 -6.40002 0.799609 -6.40002C-3.17684 -6.40002 -6.40039 -3.17647 -6.40039 0.799975C-6.40039 4.77643 -3.17684 7.99998 0.799609 7.99998Z" fill="#141414"/>
<path d="M15.1995 7.99998C19.176 7.99998 22.3995 4.77643 22.3995 0.799975C22.3995 -3.17647 19.176 -6.40002 15.1995 -6.40002C11.2231 -6.40002 7.99951 -3.17647 7.99951 0.799975C7.99951 4.77643 11.2231 7.99998 15.1995 7.99998Z" fill="#141414"/>
</g>
<defs>
<clipPath id="clip0_139_6796">
<rect width="14.4" height="14.4" fill="white" transform="translate(0.799805 0.799988)"/>
</clipPath>
</defs>
</svg>
